<?xml version="1.0" standalone="no"?>
<!DOCTYPE svg PUBLIC "-//W3C//DTD SVG 20010904//EN"
 "http://www.w3.org/TR/2001/REC-SVG-20010904/DTD/svg10.dtd">
<svg version="1.0" xmlns="http://www.w3.org/2000/svg"
 width="546.000000pt" height="320.000000pt" viewBox="0 0 546.000000 320.000000"
 preserveAspectRatio="xMidYMid meet">

<g transform="translate(0.000000,320.000000) scale(0.100000,-0.100000)"
fill="#000000" stroke="none">
<path d="M2060 1130 c-130 -18 -276 -53 -569 -135 -388 -108 -566 -143 -748
-145 l-33 0 0 -85 0 -85 68 0 c159 0 341 33 617 110 498 139 647 170 810 170
233 -1 382 -85 500 -283 22 -36 42 -67 45 -67 3 0 23 31 45 67 182 306 435
353 1023 191 573 -158 650 -175 850 -185 l122 -6 0 85 0 86 -107 7 c-162 9
-338 46 -671 139 -441 124 -604 153 -782 143 -175 -11 -314 -65 -421 -164
l-60 -56 -47 46 c-63 62 -151 113 -247 143 -91 29 -278 40 -395 24z"/>
<path d="M710 515 l0 -85 860 0 859 0 20 -46 c32 -71 75 -118 143 -155 59 -32
69 -34 158 -34 84 0 101 3 147 27 67 36 120 90 150 156 l24 52 860 0 859 0 0
85 0 85 -940 0 -940 0 0 -52 c-1 -112 -63 -183 -160 -183 -97 0 -159 71 -160
183 l0 52 -940 0 -940 0 0 -85z"/>
</g>
</svg>
